<svg width="207" height="89" viewBox="0 0 207 89" fill="none" xmlns="http://www.w3.org/2000/svg">
<g clip-path="url(#clip0_14_137)">
<path d="M12.1097 1.43311L52.0161 24.1003L12.1097 43.6413V35.434L32.0629 22.537L12.1097 8.85859V1.43311Z" fill="#FFF200" stroke="#FFF200" stroke-width="5" stroke-miterlimit="10"/>
<path d="M12.1097 45.4415L52.0161 68.1087L12.1097 87.6497V79.4425L32.0629 66.5455L12.1097 52.867V45.4415Z" fill="#FFF200" stroke="#FFF200" stroke-width="5" stroke-miterlimit="10"/>
<path d="M8.11115 1.42407H0V87.6407H8.11115V1.42407Z" fill="#7074F2" stroke="#7074F2" stroke-width="5" stroke-miterlimit="10"/>
</g>
<path d="M63.2577 47.0793C62.4977 47.0793 61.9077 46.8793 61.4877 46.4793C61.0677 46.0793 60.8577 45.5193 60.8577 44.7993V38.7993C60.8577 38.0993 61.0577 37.5543 61.4577 37.1643C61.8677 36.7743 62.4327 36.5793 63.1527 36.5793H66.6178C67.7778 36.5793 68.6728 36.8243 69.3028 37.3143C69.9328 37.8043 70.2478 38.5143 70.2478 39.4443C70.2478 39.9043 70.1128 40.3343 69.8428 40.7343C69.5728 41.1243 69.2228 41.4193 68.7928 41.6193V41.6343C69.2728 41.8243 69.6628 42.1293 69.9628 42.5493C70.2728 42.9593 70.4277 43.4043 70.4277 43.8843C70.4277 44.8843 70.1027 45.6693 69.4527 46.2393C68.8127 46.7993 67.9277 47.0793 66.7978 47.0793H63.2577ZM66.6178 40.9143C67.1278 40.9143 67.5228 40.7893 67.8028 40.5393C68.0928 40.2893 68.2378 39.9293 68.2378 39.4593C68.2378 38.9993 68.1028 38.6593 67.8328 38.4393C67.5628 38.2193 67.1578 38.1093 66.6178 38.1093H63.4677C63.2677 38.1093 63.1077 38.1743 62.9877 38.3043C62.8777 38.4343 62.8227 38.6143 62.8227 38.8443V40.9143H66.6178ZM66.6178 45.5493C67.8177 45.5493 68.4177 45.0043 68.4177 43.9143C68.4177 43.4443 68.2577 43.0793 67.9377 42.8193C67.6277 42.5593 67.1878 42.4293 66.6178 42.4293H62.8227V44.8143C62.8227 45.0443 62.8777 45.2243 62.9877 45.3543C63.1077 45.4843 63.2677 45.5493 63.4677 45.5493H66.6178ZM76.5663 47.2293C75.6263 47.2293 74.8013 47.0393 74.0913 46.6593C73.3913 46.2793 72.8463 45.7393 72.4563 45.0393C72.0763 44.3293 71.8863 43.4943 71.8863 42.5343V37.3293C71.8863 37.0493 71.9763 36.8293 72.1563 36.6693C72.3363 36.5093 72.5763 36.4293 72.8763 36.4293C73.1763 36.4293 73.4163 36.5143 73.5963 36.6843C73.7863 36.8443 73.8813 37.0593 73.8813 37.3293V42.5793C73.8813 43.5693 74.1163 44.3293 74.5863 44.8593C75.0563 45.3893 75.7313 45.6543 76.6113 45.6543C77.4813 45.6543 78.1513 45.3893 78.6213 44.8593C79.1013 44.3193 79.3413 43.5593 79.3413 42.5793V37.3293C79.3413 37.0593 79.4313 36.8443 79.6113 36.6843C79.8013 36.5143 80.0463 36.4293 80.3463 36.4293C80.6463 36.4293 80.8863 36.5093 81.0663 36.6693C81.2463 36.8293 81.3363 37.0493 81.3363 37.3293V42.5343C81.3363 43.4643 81.1363 44.2843 80.7363 44.9943C80.3463 45.7043 79.7913 46.2543 79.0713 46.6443C78.3513 47.0343 77.5163 47.2293 76.5663 47.2293ZM85.3476 47.0793C84.5876 47.0793 83.9976 46.8793 83.5776 46.4793C83.1576 46.0793 82.9476 45.5193 82.9476 44.7993V38.7993C82.9476 38.0993 83.1476 37.5543 83.5476 37.1643C83.9576 36.7743 84.5226 36.5793 85.2426 36.5793H87.3426C88.4926 36.5793 89.4876 36.7893 90.3276 37.2093C91.1676 37.6293 91.8076 38.2343 92.2476 39.0243C92.6976 39.8143 92.9226 40.7543 92.9226 41.8443C92.9226 42.9343 92.6976 43.8743 92.2476 44.6643C91.8076 45.4443 91.1676 46.0443 90.3276 46.4643C89.4976 46.8743 88.5026 47.0793 87.3426 47.0793H85.3476ZM87.1926 45.5343C88.4426 45.5343 89.3726 45.2343 89.9826 44.6343C90.5926 44.0243 90.8976 43.0943 90.8976 41.8443C90.8976 40.5943 90.5876 39.6643 89.9676 39.0543C89.3576 38.4343 88.4326 38.1243 87.1926 38.1243H85.5876C85.3876 38.1243 85.2276 38.1893 85.1076 38.3193C84.9976 38.4493 84.9426 38.6293 84.9426 38.8593V44.7993C84.9426 45.0293 84.9976 45.2093 85.1076 45.3393C85.2276 45.4693 85.3876 45.5343 85.5876 45.5343H87.1926ZM99.8016 47.2293C98.6716 47.2293 97.6916 47.0143 96.8616 46.5843C96.0316 46.1543 95.3966 45.5343 94.9566 44.7243C94.5166 43.9143 94.2966 42.9543 94.2966 41.8443C94.2966 40.7343 94.5166 39.7743 94.9566 38.9643C95.3966 38.1443 96.0266 37.5193 96.8466 37.0893C97.6766 36.6493 98.6516 36.4293 99.7716 36.4293C100.702 36.4293 101.562 36.5893 102.352 36.9093C103.142 37.2293 103.727 37.6543 104.107 38.1843C104.227 38.3443 104.287 38.5093 104.287 38.6793C104.287 38.9293 104.152 39.1543 103.882 39.3543C103.762 39.4443 103.612 39.4893 103.432 39.4893C103.282 39.4893 103.132 39.4593 102.982 39.3993C102.832 39.3293 102.707 39.2343 102.607 39.1143C102.267 38.7243 101.872 38.4443 101.422 38.2743C100.972 38.0943 100.422 38.0043 99.7716 38.0043C98.6816 38.0043 97.8316 38.3443 97.2216 39.0243C96.6116 39.6943 96.3066 40.6343 96.3066 41.8443C96.3066 43.0443 96.6116 43.9793 97.2216 44.6493C97.8416 45.3193 98.7016 45.6543 99.8016 45.6543C100.712 45.6543 101.422 45.4793 101.932 45.1293C102.452 44.7793 102.712 44.2943 102.712 43.6743V43.3443C102.712 43.1343 102.662 42.9893 102.562 42.9093C102.472 42.8293 102.312 42.7893 102.082 42.7893H100.117C99.8366 42.7893 99.6166 42.7243 99.4566 42.5943C99.2966 42.4543 99.2166 42.2643 99.2166 42.0243C99.2166 41.7743 99.2916 41.5843 99.4416 41.4543C99.6016 41.3143 99.8266 41.2443 100.117 41.2443H103.027C103.607 41.2443 104.032 41.3693 104.302 41.6193C104.572 41.8593 104.707 42.2443 104.707 42.7743V43.3593C104.707 44.1193 104.502 44.7943 104.092 45.3843C103.682 45.9643 103.102 46.4193 102.352 46.7493C101.612 47.0693 100.762 47.2293 99.8016 47.2293ZM108.639 47.0793C107.879 47.0793 107.289 46.8793 106.869 46.4793C106.449 46.0793 106.239 45.5193 106.239 44.7993V38.7993C106.239 38.0993 106.439 37.5543 106.839 37.1643C107.249 36.7743 107.814 36.5793 108.534 36.5793H113.199C113.499 36.5793 113.729 36.6493 113.889 36.7893C114.049 36.9193 114.129 37.1093 114.129 37.3593C114.129 37.5993 114.044 37.7893 113.874 37.9293C113.714 38.0593 113.489 38.1243 113.199 38.1243H108.879C108.679 38.1243 108.519 38.1893 108.399 38.3193C108.289 38.4493 108.234 38.6293 108.234 38.8593V40.9443H112.059C112.359 40.9443 112.589 41.0143 112.749 41.1543C112.909 41.2843 112.989 41.4743 112.989 41.7243C112.989 41.9643 112.904 42.1543 112.734 42.2943C112.574 42.4243 112.349 42.4893 112.059 42.4893H108.234V44.7993C108.234 45.0293 108.289 45.2093 108.399 45.3393C108.519 45.4693 108.679 45.5343 108.879 45.5343H113.529C113.829 45.5343 114.059 45.6043 114.219 45.7443C114.379 45.8743 114.459 46.0643 114.459 46.3143C114.459 46.5543 114.374 46.7443 114.204 46.8843C114.044 47.0143 113.819 47.0793 113.529 47.0793H108.639ZM120.359 47.2293C120.059 47.2293 119.819 47.1493 119.639 46.9893C119.459 46.8293 119.369 46.6093 119.369 46.3293V38.1243H116.474C116.184 38.1243 115.954 38.0593 115.784 37.9293C115.624 37.7893 115.544 37.5993 115.544 37.3593C115.544 37.1093 115.624 36.9193 115.784 36.7893C115.944 36.6493 116.174 36.5793 116.474 36.5793H124.259C124.559 36.5793 124.789 36.6493 124.949 36.7893C125.109 36.9193 125.189 37.1093 125.189 37.3593C125.189 37.5993 125.104 37.7893 124.934 37.9293C124.774 38.0593 124.549 38.1243 124.259 38.1243H121.364V46.3293C121.364 46.5993 121.269 46.8193 121.079 46.9893C120.899 47.1493 120.659 47.2293 120.359 47.2293Z" fill="#7074F2"/>
<path d="M133.858 47.2293C133.298 47.2293 132.848 47.0593 132.508 46.7193C132.178 46.3693 131.943 45.8243 131.803 45.0843L130.318 37.4493C130.298 37.3293 130.288 37.2443 130.288 37.1943C130.288 36.9443 130.368 36.7543 130.528 36.6243C130.698 36.4943 130.928 36.4293 131.218 36.4293C131.818 36.4293 132.168 36.6943 132.268 37.2243L133.693 45.2493C133.733 45.4093 133.768 45.5193 133.798 45.5793C133.828 45.6293 133.868 45.6543 133.918 45.6543C134.038 45.6543 134.113 45.5243 134.143 45.2643L135.088 38.0793C135.158 37.5593 135.348 37.1543 135.658 36.8643C135.978 36.5743 136.383 36.4293 136.873 36.4293C137.363 36.4293 137.763 36.5743 138.073 36.8643C138.393 37.1543 138.588 37.5593 138.658 38.0793L139.603 45.2643C139.633 45.5243 139.708 45.6543 139.828 45.6543C139.878 45.6543 139.918 45.6293 139.948 45.5793C139.978 45.5193 140.013 45.4093 140.053 45.2493L141.478 37.2243C141.578 36.6943 141.928 36.4293 142.528 36.4293C142.818 36.4293 143.043 36.4943 143.203 36.6243C143.373 36.7543 143.458 36.9443 143.458 37.1943C143.458 37.2443 143.448 37.3293 143.428 37.4493L141.943 45.0843C141.803 45.8243 141.563 46.3693 141.223 46.7193C140.893 47.0593 140.448 47.2293 139.888 47.2293C139.328 47.2293 138.893 47.0593 138.583 46.7193C138.273 46.3793 138.068 45.8493 137.968 45.1293L137.083 38.4093C137.063 38.2593 137.038 38.1543 137.008 38.0943C136.978 38.0343 136.933 38.0043 136.873 38.0043C136.813 38.0043 136.768 38.0343 136.738 38.0943C136.708 38.1543 136.683 38.2593 136.663 38.4093L135.778 45.1293C135.678 45.8493 135.473 46.3793 135.163 46.7193C134.853 47.0593 134.418 47.2293 133.858 47.2293ZM145.679 47.2143C145.379 47.2143 145.139 47.1343 144.959 46.9743C144.779 46.8143 144.689 46.5943 144.689 46.3143V41.0643C144.689 39.6143 145.104 38.4793 145.934 37.6593C146.764 36.8393 147.919 36.4293 149.399 36.4293C150.369 36.4293 151.209 36.6143 151.919 36.9843C152.629 37.3543 153.169 37.8893 153.539 38.5893C153.919 39.2893 154.109 40.1143 154.109 41.0643V46.3143C154.109 46.5943 154.019 46.8143 153.839 46.9743C153.659 47.1343 153.419 47.2143 153.119 47.2143C152.819 47.2143 152.574 47.1343 152.384 46.9743C152.204 46.8043 152.114 46.5843 152.114 46.3143V43.8693H146.684V46.3143C146.684 46.5843 146.589 46.8043 146.399 46.9743C146.219 47.1343 145.979 47.2143 145.679 47.2143ZM152.114 42.3243V41.0193C152.114 40.0193 151.884 39.2693 151.424 38.7693C150.974 38.2593 150.299 38.0043 149.399 38.0043C147.589 38.0043 146.684 39.0093 146.684 41.0193V42.3243H152.114ZM157.161 47.2293C156.861 47.2293 156.621 47.1493 156.441 46.9893C156.261 46.8293 156.171 46.6093 156.171 46.3293V37.3293C156.171 37.0493 156.261 36.8293 156.441 36.6693C156.621 36.5093 156.861 36.4293 157.161 36.4293C157.451 36.4293 157.691 36.5093 157.881 36.6693C158.071 36.8293 158.166 37.0493 158.166 37.3293V46.3293C158.166 46.6093 158.071 46.8293 157.881 46.9893C157.691 47.1493 157.451 47.2293 157.161 47.2293ZM165.361 47.2293C164.381 47.2293 163.461 47.0693 162.601 46.7493C161.741 46.4193 160.996 45.9493 160.366 45.3393C160.216 45.1893 160.141 45.0193 160.141 44.8293C160.141 44.6093 160.241 44.3993 160.441 44.1993C160.601 44.0393 160.776 43.9593 160.966 43.9593C161.166 43.9593 161.406 44.0743 161.686 44.3043C162.156 44.7343 162.711 45.0693 163.351 45.3093C164.001 45.5393 164.671 45.6543 165.361 45.6543C166.021 45.6543 166.536 45.5443 166.906 45.3243C167.276 45.0943 167.461 44.7743 167.461 44.3643C167.461 43.9343 167.261 43.5893 166.861 43.3293C166.461 43.0593 165.781 42.8193 164.821 42.6093C163.311 42.2793 162.211 41.8443 161.521 41.3043C160.841 40.7643 160.501 40.0693 160.501 39.2193C160.501 38.6793 160.681 38.1993 161.041 37.7793C161.401 37.3493 161.901 37.0193 162.541 36.7893C163.191 36.5493 163.931 36.4293 164.761 36.4293C165.691 36.4293 166.516 36.5843 167.236 36.8943C167.966 37.1943 168.521 37.6193 168.901 38.1693C169.031 38.3793 169.096 38.5593 169.096 38.7093C169.086 38.9593 168.961 39.1743 168.721 39.3543C168.591 39.4443 168.441 39.4893 168.271 39.4893C167.961 39.4893 167.706 39.3693 167.506 39.1293C167.216 38.7793 166.826 38.5043 166.336 38.3043C165.856 38.1043 165.331 38.0043 164.761 38.0043C164.051 38.0043 163.496 38.1143 163.096 38.3343C162.706 38.5443 162.511 38.8393 162.511 39.2193C162.511 39.5993 162.701 39.9143 163.081 40.1643C163.471 40.4043 164.141 40.6343 165.091 40.8543C166.141 41.1043 166.986 41.3893 167.626 41.7093C168.266 42.0193 168.731 42.3893 169.021 42.8193C169.321 43.2493 169.471 43.7643 169.471 44.3643C169.471 44.9343 169.301 45.4393 168.961 45.8793C168.621 46.3093 168.141 46.6443 167.521 46.8843C166.901 47.1143 166.181 47.2293 165.361 47.2293Z" fill="#FFF200"/>
<defs>
<clipPath id="clip0_14_137">
<rect width="53.8935" height="89" fill="white"/>
</clipPath>
</defs>
</svg>
